# xmcd
# Track frame offsets:
# 150
# 13885
# 25042
# 46220
# 57627
# 71842
# 85912
# 99282
# 110290
# 133330
# 149490
# 161057
# 178875
#
# Disc length: 2611 seconds
# Revision: 0
# Processed by: cddbd v1.4PL0 Copyright (c) Steve Scherf et al.
# Submitted via: VisiTrax 2.9.5.181 - For more info visit www.synapsa.com
#
DISCID=bc0a310d
DTITLE=Jan Rasmussen - Bedre sent end aldrig 1
DYEAR=1994
DGENRE=Danish Country
TTITLE0=Før du rejser
TTITLE1=Jeg går og tænker på dig
TTITLE2=Vi loved hinanden
TTITLE3=Den sidste glød
TTITLE4=Jeg bor i en gade
TTITLE5=Brevene fra dig
TTITLE6=Lille ven hør på mig
TTITLE7=Tro, håb, lidt kærlighed
TTITLE8=Ensom i min stue
TTITLE9=Tur langs stranden
TTITLE10=Tør jeg mon si' det
TTITLE11=Mit Nørrekås
TTITLE12=Pas på vor lille ø
EXTD=
EXTT0=
EXTT1=
EXTT2=
EXTT3=
EXTT4=
EXTT5=
EXTT6=
EXTT7=
EXTT8=
EXTT9=
EXTT10=
EXTT11=
EXTT12=
PLAYORDER=
